<mxfile host="app.diagrams.net" agent="Mozilla/5.0 (X11; Linux x86_64; rv:142.0) Gecko/20100101 Firefox/142.0" version="28.2.5">
  <diagram name="PÃ¡gina-1" id="-fIuNrJ5m0o2VbZtC034">
    <mxGraphModel dx="2625" dy="765" grid="1" gridSize="10" guides="1" tooltips="1" connect="1" arrows="1" fold="1" page="1" pageScale="1" pageWidth="827" pageHeight="1169" math="0" shadow="0">
      <root>
        <mxCell id="0" />
        <mxCell id="1" parent="0" />
        <mxCell id="jpFdSrUH4qeqEuFEmaey-1" value="q0" style="ellipse;whiteSpace=wrap;html=1;aspect=fixed;" vertex="1" parent="1">
          <mxGeometry x="-1570" y="550" width="50" height="50" as="geometry" />
        </mxCell>
        <mxCell id="jpFdSrUH4qeqEuFEmaey-2" value="" style="shape=singleArrow;whiteSpace=wrap;html=1;" vertex="1" parent="1">
          <mxGeometry x="-1590" y="565" width="20" height="20" as="geometry" />
        </mxCell>
        <mxCell id="jpFdSrUH4qeqEuFEmaey-4" value="" style="shape=waypoint;sketch=0;fillStyle=solid;size=6;pointerEvents=1;points=[];fillColor=none;resizable=0;rotatable=0;perimeter=centerPerimeter;snapToPoint=1;" vertex="1" parent="1">
          <mxGeometry x="-310" y="580" width="20" height="20" as="geometry" />
        </mxCell>
        <mxCell id="jpFdSrUH4qeqEuFEmaey-7" value="odf shid" style="endArrow=classic;html=1;rounded=0;" edge="1" parent="1" target="jpFdSrUH4qeqEuFEmaey-8">
          <mxGeometry width="50" height="50" relative="1" as="geometry">
            <mxPoint x="-1520" y="565" as="sourcePoint" />
            <mxPoint x="-1460" y="540" as="targetPoint" />
          </mxGeometry>
        </mxCell>
        <mxCell id="jpFdSrUH4qeqEuFEmaey-8" value="q1" style="ellipse;whiteSpace=wrap;html=1;aspect=fixed;" vertex="1" parent="1">
          <mxGeometry x="-1470" y="490" width="60" height="60" as="geometry" />
        </mxCell>
        <mxCell id="jpFdSrUH4qeqEuFEmaey-9" value="" style="endArrow=classic;html=1;rounded=0;" edge="1" parent="1" target="jpFdSrUH4qeqEuFEmaey-10">
          <mxGeometry width="50" height="50" relative="1" as="geometry">
            <mxPoint x="-1520" y="585" as="sourcePoint" />
            <mxPoint x="-1480" y="610" as="targetPoint" />
          </mxGeometry>
        </mxCell>
        <mxCell id="jpFdSrUH4qeqEuFEmaey-10" value="q2" style="ellipse;whiteSpace=wrap;html=1;aspect=fixed;" vertex="1" parent="1">
          <mxGeometry x="-1470" y="600" width="60" height="60" as="geometry" />
        </mxCell>
        <mxCell id="jpFdSrUH4qeqEuFEmaey-11" value="ujdvfuf" style="endArrow=classic;html=1;rounded=0;" edge="1" parent="1">
          <mxGeometry width="50" height="50" relative="1" as="geometry">
            <mxPoint x="-1410" y="520" as="sourcePoint" />
            <mxPoint x="-1350" y="520" as="targetPoint" />
          </mxGeometry>
        </mxCell>
        <mxCell id="jpFdSrUH4qeqEuFEmaey-12" value="" style="endArrow=classic;html=1;rounded=0;" edge="1" parent="1">
          <mxGeometry width="50" height="50" relative="1" as="geometry">
            <mxPoint x="-1410" y="629.5" as="sourcePoint" />
            <mxPoint x="-1350" y="629.5" as="targetPoint" />
          </mxGeometry>
        </mxCell>
        <mxCell id="jpFdSrUH4qeqEuFEmaey-13" value="q4" style="ellipse;whiteSpace=wrap;html=1;aspect=fixed;" vertex="1" parent="1">
          <mxGeometry x="-1350" y="600" width="60" height="60" as="geometry" />
        </mxCell>
        <mxCell id="jpFdSrUH4qeqEuFEmaey-14" value="q3" style="ellipse;whiteSpace=wrap;html=1;aspect=fixed;" vertex="1" parent="1">
          <mxGeometry x="-1350" y="490" width="60" height="60" as="geometry" />
        </mxCell>
        <mxCell id="jpFdSrUH4qeqEuFEmaey-15" value="" style="endArrow=classic;html=1;rounded=0;strokeColor=default;" edge="1" parent="1">
          <mxGeometry width="50" height="50" relative="1" as="geometry">
            <mxPoint x="-1440" y="490" as="sourcePoint" />
            <mxPoint x="-1420" y="500" as="targetPoint" />
            <Array as="points">
              <mxPoint x="-1440" y="480" />
              <mxPoint x="-1430" y="470" />
              <mxPoint x="-1420" y="470" />
              <mxPoint x="-1410" y="480" />
            </Array>
          </mxGeometry>
        </mxCell>
      </root>
    </mxGraphModel>
  </diagram>
</mxfile>
